<?xml version="1.0" encoding="UTF-8"?>
<svg xmlns="http://www.w3.org/2000/svg" viewBox="0 0 64 64" width="64" height="64" role="img" aria-label="StreamlineVPN logo">
  <defs>
    <linearGradient id="g" x1="0" x2="1" y1="0" y2="1">
      <stop offset="0%" stop-color="#4f8cff"/>
      <stop offset="100%" stop-color="#2dd4bf"/>
    </linearGradient>
  </defs>
  <rect x="4" y="6" width="56" height="40" rx="10" ry="10" fill="url(#g)" opacity="0.9"/>
  <path d="M12 24c10 0 18-6 20-10c2 4 10 10 20 10v8c0 11-9 20-20 20s-20-9-20-20v-8z" fill="#0b1020" opacity="0.22"/>
  <circle cx="32" cy="40" r="12" fill="#0b1020" opacity="0.2"/>
  <path d="M24 40a8 8 0 0 1 16 0h-4a4 4 0 0 0-8 0h-4z" fill="#e7ecf3"/>
  <circle cx="32" cy="28" r="3" fill="#e7ecf3"/>
</svg>

